<svg width="32" height="33" viewBox="0 0 32 33" fill="none" xmlns="http://www.w3.org/2000/svg">
<g id="search">
<path id="Vector" d="M21.0067 19.5067H19.9533L19.58 19.1467C20.8867 17.6267 21.6733 15.6533 21.6733 13.5067C21.6733 8.72 17.7933 4.84 13.0067 4.84C8.22 4.84 4.34 8.72 4.34 13.5067C4.34 18.2933 8.22 22.1733 13.0067 22.1733C15.1533 22.1733 17.1267 21.3867 18.6467 20.08L19.0067 20.4533V21.5067L25.6733 28.16L27.66 26.1733L21.0067 19.5067ZM13.0067 19.5067C9.68666 19.5067 7.00666 16.8267 7.00666 13.5067C7.00666 10.1867 9.68666 7.50666 13.0067 7.50666C16.3267 7.50666 19.0067 10.1867 19.0067 13.5067C19.0067 16.8267 16.3267 19.5067 13.0067 19.5067Z" fill="#C9C5CA"/>
</g>
</svg>
